<?xml version="1.0" encoding="UTF-8"?>
<svg width="24px" height="24px" fill="#fff" version="1.1" viewBox="0 -960 960 960" xmlns="http://www.w3.org/2000/svg">
 <path d="m624.99-430.78-51.275-51.275q7.9565-41.551-23.87-77.797-31.826-36.246-82.217-28.29l-51.275-51.275q15.029-7.0725 30.5-10.609 15.471-3.5362 33.152-3.5362 66.304 0 112.72 46.413 46.413 46.413 46.413 112.72 0 17.681-3.5362 33.152-3.5362 15.471-10.609 30.5zm113.16 111.39-51.275-49.507q33.594-25.638 59.674-56.138t44.645-69.399q-44.203-89.29-126.86-141.89t-184.33-52.601q-25.638 0-50.391 3.5362-24.754 3.5362-48.623 10.609l-54.812-54.812q36.246-15.029 74.261-22.543 38.014-7.5145 79.565-7.5145 133.49 0 237.81 73.819t151.17 191.4q-20.333 52.159-53.486 96.804-33.152 44.645-77.355 78.239zm17.681 217.48-148.52-146.75q-30.942 9.7246-62.326 14.587t-64.978 4.8623q-133.49 0-237.81-73.819t-151.17-191.4q18.565-46.855 46.855-87.08 28.29-40.225 64.536-72.051l-97.246-99.014 49.507-49.507 650.67 650.67zm-503.91-502.14q-25.638 22.986-46.855 50.391-21.217 27.406-36.246 59.232 44.203 89.29 126.86 141.89t184.33 52.601q17.681 0 34.478-2.2101 16.797-2.2102 34.478-4.8623l-31.826-33.594q-9.7246 2.6522-18.565 3.9783-8.8406 1.3261-18.565 1.3261-66.304 0-112.72-46.413-46.413-46.413-46.413-112.72 0-9.7246 1.3261-18.565t3.9783-18.565z"/>
</svg>
