<?xml version="1.0" encoding="UTF-8"?>
<svg width="24px" height="24px" fill="#fff" version="1.1" viewBox="0 -960 960 960" xmlns="http://www.w3.org/2000/svg">
 <path d="m655.58-426.3-62.092-62.092q9.635-50.317-28.906-94.209-38.54-43.893-99.562-34.258l-62.092-62.092q18.2-8.5645 36.934-12.847 18.735-4.2822 40.146-4.2822 80.292 0 136.5 56.204 56.204 56.204 56.204 136.5 0 21.411-4.2822 40.146-4.2822 18.735-12.847 36.934zm137.03 134.89-62.092-59.951q40.681-31.047 72.263-67.981 31.582-36.934 54.063-84.04-53.528-108.13-153.62-171.82-100.09-63.697-223.22-63.698-31.047 0-61.022 4.2822-29.976 4.2822-58.881 12.847l-66.375-66.375q43.893-18.2 89.927-27.299 46.034-9.0998 96.35-9.0998 161.65 0 287.98 89.392 126.33 89.392 183.06 231.78-24.623 63.163-64.77 117.23-40.146 54.063-93.674 94.745zm21.411 263.36-179.85-177.71q-37.47 11.776-75.474 17.664-38.005 5.8882-78.686 5.8881-161.65 0-287.98-89.392-126.33-89.392-183.06-231.78 22.482-56.74 56.74-105.45 34.258-48.711 78.151-87.251l-117.76-119.9 59.951-59.951 787.94 787.94zm-610.22-608.07q-31.047 27.835-56.74 61.022-25.693 33.188-43.893 71.728 53.528 108.13 153.62 171.82 100.09 63.697 223.22 63.698 21.411 0 41.752-2.6764 20.341-2.6765 41.752-5.8881l-38.54-40.681q-11.776 3.2117-22.482 4.8176-10.706 1.6059-22.482 1.6059-80.292 0-136.5-56.204-56.204-56.204-56.204-136.5 0-11.776 1.6058-22.482 1.6059-10.705 4.8176-22.482z" fill="#909090"/>
</svg>
