<?xml version="1.0" encoding="UTF-8"?>
<svg width="24px" height="24px" fill="#fff" version="1.1" viewBox="0 -960 960 960" xmlns="http://www.w3.org/2000/svg">
 <path d="m480-312.07q80.238 0 136.4-56.167 56.167-56.167 56.167-136.4 0-80.238-56.167-136.4-56.167-56.167-136.4-56.167-80.238 0-136.4 56.167-56.167 56.167-56.167 136.4 0 80.238 56.167 136.4 56.167 56.167 136.4 56.167zm0-77.029q-48.143 0-81.843-33.7-33.7-33.7-33.7-81.843t33.7-81.843q33.7-33.7 81.843-33.7t81.843 33.7 33.7 81.843-33.7 81.843q-33.7 33.7-81.843 33.7zm0 205.41q-156.2 0-284.58-87.192-128.38-87.192-186.15-233.76 57.771-146.57 186.15-233.76 128.38-87.192 284.58-87.192 156.2 0 284.58 87.192t186.15 233.76q-57.771 146.57-186.15 233.76-128.38 87.192-284.58 87.192zm0-320.95m0 235.37q120.89 0 221.99-63.656 101.1-63.656 154.59-171.71-53.492-108.05-154.59-171.71-101.1-63.656-221.99-63.656t-221.99 63.656q-101.1 63.656-154.59 171.71 53.492 108.05 154.59 171.71 101.1 63.656 221.99 63.656z" fill="#909090"/>
</svg>
