<?xml version="1.0" encoding="UTF-8" standalone="no"?>
<svg
   width="24px"
   height="24px"
   fill="#fff"
   version="1.1"
   viewBox="0 -960 960 960"
   id="svg1"
   sodipodi:docname="icon_product.svg"
   inkscape:version="1.4.2 (ebf0e940d0, 2025-05-08)"
   inkscape:export-filename="icon_128"
   inkscape:export-xdpi="512"
   inkscape:export-ydpi="512"
   xmlns:inkscape="http://www.inkscape.org/namespaces/inkscape"
   xmlns:sodipodi="http://sodipodi.sourceforge.net/DTD/sodipodi-0.dtd"
   xmlns="http://www.w3.org/2000/svg"
   xmlns:svg="http://www.w3.org/2000/svg">
  <defs
     id="defs1" />
  <sodipodi:namedview
     id="namedview1"
     pagecolor="#ffffff"
     bordercolor="#000000"
     borderopacity="0.25"
     inkscape:showpageshadow="2"
     inkscape:pageopacity="0.0"
     inkscape:pagecheckerboard="0"
     inkscape:deskcolor="#d1d1d1"
     inkscape:zoom="12.197592"
     inkscape:cx="5.3699124"
     inkscape:cy="23.119317"
     inkscape:window-width="1920"
     inkscape:window-height="1011"
     inkscape:window-x="0"
     inkscape:window-y="0"
     inkscape:window-maximized="1"
     inkscape:current-layer="svg1" />
  <ellipse
     style="fill:#ffffff;fill-opacity:1;stroke-width:0;stroke-linecap:round;stroke-linejoin:round;paint-order:stroke fill markers"
     id="path2"
     cx="480.42267"
     cy="-491.87482"
     rx="160.68744"
     ry="164.78662" />
  <path
     id="path1"
     style="fill:#ef2e2e;fill-opacity:1"
     d="M 86.015625 -868.98438 L 26.09375 -809.0625 L 143.82812 -689.14062 C 114.56612 -663.4473 88.541792 -634.349 65.703125 -601.875 C 42.864458 -569.40167 23.972375 -534.23291 8.984375 -496.40625 C 46.804375 -401.48091 107.81125 -324.20405 192.03125 -264.60938 C 276.25125 -205.0147 372.23333 -175.23438 480 -175.23438 C 507.12067 -175.23431 533.3352 -177.24641 558.67188 -181.17188 C 584.00787 -185.09721 609.16062 -190.97745 634.14062 -198.82812 L 813.98438 -21.09375 L 873.98438 -81.015625 L 605.9375 -349.14062 A 193.6232 193.6232 0 0 0 673.59375 -496.25 A 193.6232 193.6232 0 0 0 669.21875 -535.07812 A 193.6232 193.6232 0 0 0 665.15625 -552.03125 C 663.32207 -558.39685 661.17487 -564.62422 658.67188 -570.70312 L 658.67188 -570.78125 L 658.59375 -570.78125 L 658.51562 -570.85938 L 658.51562 -570.9375 A 193.6232 193.6232 0 0 0 656.25 -575.78125 C 653.90722 -580.99608 651.36415 -586.0957 648.51562 -591.09375 A 193.6232 193.6232 0 0 0 643.04688 -600.07812 C 641.40791 -602.6059 639.66604 -605.10884 637.89062 -607.57812 A 193.6232 193.6232 0 0 0 572.8125 -666.17188 A 193.6232 193.6232 0 0 0 548.20312 -677.42188 C 542.44889 -679.54758 536.47193 -681.34587 530.46875 -682.89062 A 193.6232 193.6232 0 0 0 480 -689.84375 A 193.6232 193.6232 0 0 0 332.89062 -622.10938 L 86.015625 -868.98438 z M 480 -817.57812 C 446.456 -817.57812 414.36121 -814.58216 383.67188 -808.51562 C 352.98253 -802.44962 323.012 -793.30521 293.75 -781.17188 L 360.07812 -714.84375 C 379.34812 -720.55361 399.00038 -724.80145 418.98438 -727.65625 C 438.96771 -730.51104 459.302 -731.95312 480 -731.95312 C 562.08667 -731.95245 636.47646 -710.74591 703.20312 -668.28125 C 769.93114 -625.82125 821.18967 -568.49291 856.875 -496.40625 C 841.88767 -465.00225 823.86717 -437.04454 802.8125 -412.42188 C 781.75783 -387.79921 757.66754 -365.07301 730.54688 -344.375 L 792.57812 -284.45312 C 828.26346 -311.57445 859.486 -343.17674 886.25 -379.21875 C 913.01467 -415.26341 934.6003 -454.29758 951.01562 -496.40625 C 913.19564 -591.33158 852.18875 -668.60846 767.96875 -728.20312 C 683.74875 -787.7978 587.76667 -817.57812 480 -817.57812 z M 203.82812 -629.14062 L 292.10938 -542.96875 A 193.6232 193.6232 0 0 0 286.40625 -496.25 A 193.6232 193.6232 0 0 0 307.89062 -408.4375 C 308.48694 -407.27989 308.98694 -406.0683 309.60938 -404.92188 A 193.6232 193.6232 0 0 0 318.4375 -390.3125 C 318.75156 -389.84396 319.05618 -389.37275 319.375 -388.90625 A 193.6232 193.6232 0 0 0 373.125 -335.3125 A 193.6232 193.6232 0 0 0 480 -302.57812 A 193.6232 193.6232 0 0 0 526.71875 -308.35938 L 563.51562 -269.45312 C 549.24163 -267.31205 535.35754 -265.37808 521.79688 -263.59375 C 508.23621 -261.80948 494.274 -260.9375 480 -260.9375 C 397.91333 -260.93817 323.52354 -282.14471 256.79688 -324.60938 C 190.06888 -367.06938 138.88847 -424.31958 103.20312 -496.40625 C 115.33647 -522.09958 129.90258 -545.99967 147.03125 -568.125 C 164.15992 -590.24967 183.13012 -610.58396 203.82812 -629.14062 z M 393.59375 -618.82812 L 616.64062 -490 L 393.59375 -363.20312 L 393.59375 -618.82812 z " />
</svg>
