<?xml version="1.0" encoding="UTF-8"?>
<svg width="24px" height="24px" fill="#fff" version="1.1" viewBox="0 -960 960 960" xmlns="http://www.w3.org/2000/svg">
 <path d="m86.016-868.98-59.922 59.922 117.73 119.92c-29.262 25.693-55.286 54.792-78.125 87.266-22.839 32.473-41.731 67.642-56.719 105.47 37.82 94.925 98.827 172.2 183.05 231.8 84.22 59.595 180.2 89.375 287.97 89.375 27.121 7e-5 53.335-2.012 78.672-5.9375 25.336-3.9253 50.489-9.8056 75.469-17.656l179.84 177.73 60-59.922-268.05-268.12a193.62 193.62 0 0 0 67.656-147.11 193.62 193.62 0 0 0-4.375-38.828 193.62 193.62 0 0 0-4.0625-16.953c-1.8342-6.3656-3.9814-12.593-6.4844-18.672v-0.07813h-0.07813l-0.07813-0.07813v-0.07812a193.62 193.62 0 0 0-2.2656-4.8438c-2.3428-5.2148-4.8858-10.314-7.7344-15.312a193.62 193.62 0 0 0-5.4687-8.9844c-1.639-2.5278-3.3808-5.0307-5.1563-7.5a193.62 193.62 0 0 0-65.078-58.594 193.62 193.62 0 0 0-24.609-11.25c-5.7542-2.1257-11.731-3.924-17.734-5.4687a193.62 193.62 0 0 0-50.469-6.9531 193.62 193.62 0 0 0-147.11 67.734l-246.87-246.88zm393.98 51.406c-33.544 0-65.639 2.996-96.328 9.0625-30.689 6.066-60.66 15.21-89.922 27.344l66.328 66.328c19.27-5.7099 38.922-9.9577 58.906-12.812 19.983-2.8548 40.318-4.2969 61.016-4.2969 82.087 6.7e-4 156.48 21.207 223.2 63.672 66.728 42.46 117.99 99.788 153.67 171.88-14.987 31.404-33.008 59.362-54.062 83.984-21.055 24.623-45.145 47.349-72.266 68.047l62.031 59.922c35.685-27.121 66.908-58.724 93.672-94.766 26.765-36.045 48.35-75.079 64.766-117.19-37.82-94.925-98.827-172.2-183.05-231.8-84.22-59.595-180.2-89.375-287.97-89.375zm-276.17 188.44 88.281 86.172a193.62 193.62 0 0 0-5.7031 46.719 193.62 193.62 0 0 0 21.484 87.812c0.59632 1.1576 1.0963 2.3692 1.7188 3.5156a193.62 193.62 0 0 0 8.8281 14.609c0.31406 0.46854 0.61868 0.93975 0.9375 1.4062a193.62 193.62 0 0 0 53.75 53.594 193.62 193.62 0 0 0 106.88 32.734 193.62 193.62 0 0 0 46.719-5.7813l36.797 38.906c-14.274 2.1411-28.158 4.075-41.719 5.8594-13.561 1.7843-27.523 2.6562-41.797 2.6562-82.087-6.7e-4 -156.48-21.207-223.2-63.672-66.728-42.46-117.91-99.71-153.59-171.8 12.133-25.693 26.699-49.593 43.828-71.719 17.129-22.125 36.099-42.459 56.797-61.016zm189.77 10.312 223.05 128.83-223.05 126.8v-255.62z" fill="#ef2e2e"/>
</svg>
