<?xml version="1.0" encoding="UTF-8"?>
<svg width="24px" height="24px" fill="#fff" version="1.1" viewBox="0 -960 960 960" xmlns="http://www.w3.org/2000/svg">
 <path d="m480-335.07q66.304 0 112.72-46.413 46.413-46.413 46.413-112.72t-46.413-112.72q-46.413-46.413-112.72-46.413t-112.72 46.413q-46.413 46.413-46.413 112.72t46.413 112.72q46.413 46.413 112.72 46.413zm0-63.652q-39.783 0-67.63-27.848-27.848-27.848-27.848-67.63t27.848-67.63q27.848-27.848 67.63-27.848t67.63 27.848q27.848 27.848 27.848 67.63t-27.848 67.63q-27.848 27.848-67.63 27.848zm0 169.74q-129.07 0-235.16-72.051-106.09-72.051-153.83-193.17 47.739-121.12 153.83-193.17 106.09-72.051 235.16-72.051 129.07 0 235.16 72.051 106.09 72.051 153.83 193.17-47.739 121.12-153.83 193.17-106.09 72.051-235.16 72.051zm0-265.22m0 194.49q99.899 0 183.44-52.601t127.75-141.89q-44.203-89.29-127.75-141.89t-183.44-52.601-183.44 52.601-127.75 141.89q44.203 89.29 127.75 141.89t183.44 52.601z"/>
</svg>
